<mxfile host="Electron" agent="Mozilla/5.0 (Windows NT 10.0; Win64; x64) AppleWebKit/537.36 (KHTML, like Gecko) draw.io/28.1.2 Chrome/138.0.7204.243 Electron/37.4.0 Safari/537.36" version="28.1.2">
  <diagram name="Page-1" id="dz0cqNGzLJuV5HF3OY4_">
    <mxGraphModel dx="1538" dy="1113" grid="1" gridSize="10" guides="1" tooltips="1" connect="1" arrows="1" fold="1" page="1" pageScale="1" pageWidth="2000" pageHeight="2000" math="0" shadow="0">
      <root>
        <mxCell id="0" />
        <mxCell id="1" parent="0" />
        <mxCell id="QQJv3AvijKXCba4jiJS2-1" value="&lt;b&gt;&lt;font face=&quot;Georgia&quot; style=&quot;font-size: 18px;&quot;&gt;HIGH LEVEL ARCHITECTURE&lt;/font&gt;&lt;/b&gt;" style="text;html=1;align=center;verticalAlign=middle;resizable=0;points=[];autosize=1;strokeColor=none;fillColor=none;" vertex="1" parent="1">
          <mxGeometry x="20" y="40" width="310" height="40" as="geometry" />
        </mxCell>
        <mxCell id="QQJv3AvijKXCba4jiJS2-3" value="&lt;b&gt;&lt;font style=&quot;font-size: 19px;&quot;&gt;Sources&lt;/font&gt;&lt;/b&gt;" style="rounded=0;whiteSpace=wrap;html=1;strokeColor=none;fontSize=20;" vertex="1" parent="1">
          <mxGeometry x="40" y="160" width="100" height="20" as="geometry" />
        </mxCell>
        <mxCell id="QQJv3AvijKXCba4jiJS2-4" value="" style="rounded=0;whiteSpace=wrap;html=1;fillColor=none;dashed=1;dashPattern=1 2;" vertex="1" parent="1">
          <mxGeometry x="280" y="160" width="960" height="590" as="geometry" />
        </mxCell>
        <mxCell id="QQJv3AvijKXCba4jiJS2-5" value="&lt;b&gt;&lt;font style=&quot;font-size: 18px;&quot;&gt;Data Warehouse&lt;/font&gt;&lt;/b&gt;" style="rounded=0;whiteSpace=wrap;html=1;strokeColor=none;" vertex="1" parent="1">
          <mxGeometry x="671.25" y="120" width="150" height="60" as="geometry" />
        </mxCell>
        <mxCell id="QQJv3AvijKXCba4jiJS2-6" value="" style="rounded=0;whiteSpace=wrap;html=1;fillColor=none;dashed=1;dashPattern=1 2;" vertex="1" parent="1">
          <mxGeometry x="1320" y="160.5" width="160" height="589.5" as="geometry" />
        </mxCell>
        <mxCell id="QQJv3AvijKXCba4jiJS2-7" value="&lt;b&gt;&lt;font style=&quot;font-size: 18px;&quot;&gt;Consume&lt;/font&gt;&lt;/b&gt;" style="rounded=0;whiteSpace=wrap;html=1;fillColor=default;strokeColor=none;" vertex="1" parent="1">
          <mxGeometry x="1340" y="150" width="120" height="30" as="geometry" />
        </mxCell>
        <mxCell id="QQJv3AvijKXCba4jiJS2-11" value="&lt;span style=&quot;font-size: 15px;&quot;&gt;&lt;b&gt;&amp;nbsp;Bronze Layer&lt;/b&gt;&lt;/span&gt;" style="rounded=0;whiteSpace=wrap;html=1;fillColor=#ffcc99;strokeColor=#36393d;" vertex="1" parent="1">
          <mxGeometry x="320" y="210" width="120" height="30" as="geometry" />
        </mxCell>
        <mxCell id="QQJv3AvijKXCba4jiJS2-12" value="" style="rounded=0;whiteSpace=wrap;html=1;fillColor=none;strokeColor=light-dark(#f5a029, #babdc0);" vertex="1" parent="1">
          <mxGeometry x="300" y="255" width="240" height="465" as="geometry" />
        </mxCell>
        <mxCell id="QQJv3AvijKXCba4jiJS2-17" value="&lt;span style=&quot;font-size: 15px;&quot;&gt;&lt;b&gt;&amp;nbsp;Silver Layer&lt;/b&gt;&lt;/span&gt;" style="rounded=0;whiteSpace=wrap;html=1;fillColor=#eeeeee;strokeColor=#36393d;" vertex="1" parent="1">
          <mxGeometry x="685" y="210" width="120" height="30" as="geometry" />
        </mxCell>
        <mxCell id="QQJv3AvijKXCba4jiJS2-18" value="" style="rounded=0;whiteSpace=wrap;html=1;fillColor=none;strokeColor=light-dark(#dddedf, #babdc0);" vertex="1" parent="1">
          <mxGeometry x="630" y="260" width="230" height="460" as="geometry" />
        </mxCell>
        <mxCell id="QQJv3AvijKXCba4jiJS2-19" value="&lt;span style=&quot;font-size: 15px;&quot;&gt;&lt;b&gt;&amp;nbsp;Gold Layer&lt;/b&gt;&lt;/span&gt;" style="rounded=0;whiteSpace=wrap;html=1;fillColor=#ffff88;strokeColor=#36393d;" vertex="1" parent="1">
          <mxGeometry x="1010" y="210" width="120" height="30" as="geometry" />
        </mxCell>
        <mxCell id="QQJv3AvijKXCba4jiJS2-20" value="" style="rounded=0;whiteSpace=wrap;html=1;fillColor=none;strokeColor=light-dark(#e8f901, #babdc0);" vertex="1" parent="1">
          <mxGeometry x="960" y="250" width="240" height="470" as="geometry" />
        </mxCell>
        <mxCell id="QQJv3AvijKXCba4jiJS2-22" value="&lt;b&gt;CRM&lt;/b&gt;" style="image;aspect=fixed;html=1;points=[];align=center;fontSize=12;image=img/lib/azure2/general/Folder_Blank.svg;" vertex="1" parent="1">
          <mxGeometry x="40" y="230" width="69" height="56.00000000000001" as="geometry" />
        </mxCell>
        <mxCell id="QQJv3AvijKXCba4jiJS2-23" value="" style="verticalLabelPosition=bottom;html=1;verticalAlign=top;align=center;strokeColor=none;fillColor=#00BEF2;shape=mxgraph.azure.cloud_services_configuration_file;pointerEvents=1;" vertex="1" parent="1">
          <mxGeometry x="89" y="270" width="31" height="30" as="geometry" />
        </mxCell>
        <mxCell id="QQJv3AvijKXCba4jiJS2-2" value="" style="rounded=0;whiteSpace=wrap;html=1;fillColor=none;dashed=1;dashPattern=1 2;" vertex="1" parent="1">
          <mxGeometry x="20" y="170" width="160" height="550" as="geometry" />
        </mxCell>
        <mxCell id="QQJv3AvijKXCba4jiJS2-39" value="&lt;b&gt;ERP&lt;/b&gt;" style="image;aspect=fixed;html=1;points=[];align=center;fontSize=12;image=img/lib/azure2/general/Folder_Blank.svg;" vertex="1" parent="1">
          <mxGeometry x="40" y="370" width="73.93" height="60" as="geometry" />
        </mxCell>
        <mxCell id="QQJv3AvijKXCba4jiJS2-42" value="" style="verticalLabelPosition=bottom;html=1;verticalAlign=top;align=center;strokeColor=none;fillColor=#00BEF2;shape=mxgraph.azure.cloud_services_configuration_file;pointerEvents=1;" vertex="1" parent="1">
          <mxGeometry x="90" y="420" width="30" height="30" as="geometry" />
        </mxCell>
        <mxCell id="QQJv3AvijKXCba4jiJS2-50" value="" style="line;strokeWidth=2;html=1;strokeColor=light-dark(#aba6a6, #ededed);" vertex="1" parent="1">
          <mxGeometry x="25" y="470" width="110" height="10" as="geometry" />
        </mxCell>
        <mxCell id="QQJv3AvijKXCba4jiJS2-52" value="&lt;font style=&quot;font-size: 14px;&quot;&gt;&lt;b&gt;Object Type&lt;/b&gt;:CSV/Files&lt;/font&gt;&lt;div&gt;&lt;span style=&quot;font-size: 14px;&quot;&gt;&lt;br&gt;&lt;/span&gt;&lt;div&gt;&lt;b style=&quot;font-size: 14px; background-color: transparent; color: light-dark(rgb(0, 0, 0), rgb(255, 255, 255));&quot;&gt;Interfaces&lt;/b&gt;&lt;span style=&quot;font-size: 14px; background-color: transparent; color: light-dark(rgb(0, 0, 0), rgb(255, 255, 255));&quot;&gt;: Files in Folders&lt;/span&gt;&lt;/div&gt;&lt;/div&gt;" style="text;html=1;align=left;verticalAlign=middle;whiteSpace=wrap;rounded=0;" vertex="1" parent="1">
          <mxGeometry x="30" y="520" width="160" height="30" as="geometry" />
        </mxCell>
        <mxCell id="QQJv3AvijKXCba4jiJS2-54" value="" style="html=1;verticalLabelPosition=bottom;align=center;labelBackgroundColor=#ffffff;verticalAlign=top;strokeWidth=2;strokeColor=light-dark(#f8a10d, #babdc0);shadow=0;dashed=0;shape=mxgraph.ios7.icons.data;fillColor=#ffcc99;" vertex="1" parent="1">
          <mxGeometry x="385" y="325.5" width="50" height="59" as="geometry" />
        </mxCell>
        <mxCell id="QQJv3AvijKXCba4jiJS2-55" value="" style="html=1;verticalLabelPosition=bottom;align=center;labelBackgroundColor=#ffffff;verticalAlign=top;strokeWidth=2;strokeColor=light-dark(#d8d9da, #babdc0);shadow=0;dashed=0;shape=mxgraph.ios7.icons.data;fillColor=#eeeeee;" vertex="1" parent="1">
          <mxGeometry x="735" y="340" width="50" height="54.5" as="geometry" />
        </mxCell>
        <mxCell id="QQJv3AvijKXCba4jiJS2-56" value="" style="html=1;verticalLabelPosition=bottom;align=center;labelBackgroundColor=#ffffff;verticalAlign=top;strokeWidth=2;strokeColor=light-dark(#e1f00a, #babdc0);shadow=0;shape=mxgraph.ios7.icons.data;fillColor=#ffff88;" vertex="1" parent="1">
          <mxGeometry x="1045" y="337.75" width="50" height="59" as="geometry" />
        </mxCell>
        <mxCell id="QQJv3AvijKXCba4jiJS2-57" value="" style="shape=singleArrow;whiteSpace=wrap;html=1;fillColor=#cce5ff;strokeColor=#36393D;" vertex="1" parent="1">
          <mxGeometry x="190" y="320" width="100" height="60" as="geometry" />
        </mxCell>
        <mxCell id="QQJv3AvijKXCba4jiJS2-64" value="" style="shape=singleArrow;whiteSpace=wrap;html=1;fillColor=#cce5ff;strokeColor=#36393D;" vertex="1" parent="1">
          <mxGeometry x="550" y="320" width="80" height="60" as="geometry" />
        </mxCell>
        <mxCell id="QQJv3AvijKXCba4jiJS2-65" value="" style="shape=singleArrow;whiteSpace=wrap;html=1;fillColor=#cce5ff;strokeColor=#36393D;" vertex="1" parent="1">
          <mxGeometry x="1240" y="345.5" width="80" height="60" as="geometry" />
        </mxCell>
        <mxCell id="QQJv3AvijKXCba4jiJS2-66" value="" style="shape=singleArrow;whiteSpace=wrap;html=1;fillColor=#cce5ff;strokeColor=#36393D;" vertex="1" parent="1">
          <mxGeometry x="870" y="342.25" width="90" height="60" as="geometry" />
        </mxCell>
        <mxCell id="QQJv3AvijKXCba4jiJS2-67" value="&lt;b&gt;&lt;font style=&quot;font-size: 13px;&quot;&gt;Raw Data&lt;/font&gt;&lt;/b&gt;" style="text;html=1;align=center;verticalAlign=middle;whiteSpace=wrap;rounded=0;" vertex="1" parent="1">
          <mxGeometry x="372.5" y="400" width="75" height="30" as="geometry" />
        </mxCell>
        <mxCell id="QQJv3AvijKXCba4jiJS2-68" value="&lt;span style=&quot;font-size: 13px;&quot;&gt;&lt;b&gt;Cleaned Standardized Data&lt;/b&gt;&lt;/span&gt;" style="text;html=1;align=center;verticalAlign=middle;whiteSpace=wrap;rounded=0;" vertex="1" parent="1">
          <mxGeometry x="681.25" y="402.25" width="178.75" height="30" as="geometry" />
        </mxCell>
        <mxCell id="QQJv3AvijKXCba4jiJS2-69" value="&lt;span style=&quot;font-size: 13px;&quot;&gt;&lt;b&gt;Business Ready Data&lt;/b&gt;&lt;/span&gt;" style="text;html=1;align=center;verticalAlign=middle;whiteSpace=wrap;rounded=0;" vertex="1" parent="1">
          <mxGeometry x="1020" y="405.5" width="137.5" height="30" as="geometry" />
        </mxCell>
        <mxCell id="QQJv3AvijKXCba4jiJS2-70" value="" style="line;strokeWidth=2;html=1;strokeColor=light-dark(#aba6a6, #ededed);" vertex="1" parent="1">
          <mxGeometry x="325" y="435" width="185" height="10" as="geometry" />
        </mxCell>
        <mxCell id="QQJv3AvijKXCba4jiJS2-71" value="&lt;font style=&quot;font-size: 14px;&quot;&gt;&lt;b&gt;Object Type&lt;/b&gt;:Table&lt;/font&gt;&lt;div&gt;&lt;span style=&quot;font-size: 14px;&quot;&gt;&lt;br&gt;&lt;/span&gt;&lt;div&gt;&lt;span style=&quot;font-size: 14px;&quot;&gt;&lt;b&gt;Load:&lt;/b&gt;&lt;/span&gt;&lt;/div&gt;&lt;div&gt;&lt;ul&gt;&lt;li&gt;&lt;b style=&quot;font-size: 14px; background-color: transparent; color: light-dark(rgb(0, 0, 0), rgb(255, 255, 255));&quot;&gt;Batch Processing&lt;/b&gt;&lt;/li&gt;&lt;li&gt;&lt;b style=&quot;background-color: transparent; color: light-dark(rgb(0, 0, 0), rgb(255, 255, 255)); font-size: 14px;&quot;&gt;Full Load(Trunc &amp;amp; Insert)&lt;/b&gt;&lt;/li&gt;&lt;/ul&gt;&lt;div&gt;&lt;span style=&quot;font-size: 14px;&quot;&gt;&lt;b&gt;No transformation&lt;/b&gt;&lt;/span&gt;&lt;/div&gt;&lt;/div&gt;&lt;/div&gt;&lt;div&gt;&lt;span style=&quot;font-size: 14px;&quot;&gt;&lt;b&gt;Data Model:None (As-is)&lt;/b&gt;&lt;/span&gt;&lt;/div&gt;&lt;div&gt;&lt;span style=&quot;font-size: 14px;&quot;&gt;&lt;b&gt;&lt;span style=&quot;white-space: pre;&quot;&gt;&#x9;&lt;/span&gt;&lt;br&gt;&lt;/b&gt;&lt;/span&gt;&lt;/div&gt;" style="text;html=1;align=left;verticalAlign=middle;whiteSpace=wrap;rounded=0;" vertex="1" parent="1">
          <mxGeometry x="310" y="510" width="210" height="30" as="geometry" />
        </mxCell>
        <mxCell id="QQJv3AvijKXCba4jiJS2-75" value="" style="line;strokeWidth=2;html=1;strokeColor=light-dark(#aba6a6, #ededed);" vertex="1" parent="1">
          <mxGeometry x="652.5" y="435" width="187.5" height="10" as="geometry" />
        </mxCell>
        <mxCell id="QQJv3AvijKXCba4jiJS2-76" value="&lt;font style=&quot;font-size: 14px;&quot;&gt;&lt;b&gt;Object Type&lt;/b&gt;:Table&lt;/font&gt;&lt;div&gt;&lt;span style=&quot;font-size: 14px;&quot;&gt;&lt;br&gt;&lt;/span&gt;&lt;div&gt;&lt;span style=&quot;font-size: 14px;&quot;&gt;&lt;b&gt;Load:&lt;/b&gt;&lt;/span&gt;&lt;/div&gt;&lt;div&gt;&lt;ul&gt;&lt;li&gt;&lt;b style=&quot;font-size: 14px; background-color: transparent; color: light-dark(rgb(0, 0, 0), rgb(255, 255, 255));&quot;&gt;Batch Processing&lt;/b&gt;&lt;/li&gt;&lt;li&gt;&lt;span style=&quot;font-size: 14px;&quot;&gt;&lt;b&gt;Full Load&lt;/b&gt;&lt;/span&gt;&lt;/li&gt;&lt;li&gt;&lt;span style=&quot;font-size: 14px;&quot;&gt;&lt;b&gt;Truncate &amp;amp; Insert&lt;/b&gt;&lt;/span&gt;&lt;/li&gt;&lt;/ul&gt;&lt;div&gt;&lt;span style=&quot;font-size: 14px;&quot;&gt;&lt;b&gt;Transformations:&lt;/b&gt;&lt;/span&gt;&lt;/div&gt;&lt;/div&gt;&lt;/div&gt;&lt;div&gt;&lt;ul&gt;&lt;li&gt;&lt;span style=&quot;font-size: 14px;&quot;&gt;&lt;b&gt;Data Cleansing&lt;/b&gt;&lt;/span&gt;&lt;/li&gt;&lt;li&gt;&lt;span style=&quot;font-size: 14px;&quot;&gt;&lt;b&gt;Data Standardisation&lt;/b&gt;&lt;/span&gt;&lt;/li&gt;&lt;li&gt;&lt;span style=&quot;font-size: 14px;&quot;&gt;&lt;b&gt;Data Normalization&lt;/b&gt;&lt;/span&gt;&lt;/li&gt;&lt;li&gt;&lt;span style=&quot;font-size: 14px;&quot;&gt;&lt;b&gt;Derived Columns&lt;/b&gt;&lt;/span&gt;&lt;/li&gt;&lt;li&gt;&lt;span style=&quot;font-size: 14px;&quot;&gt;&lt;b&gt;Data Enrichment&lt;/b&gt;&lt;/span&gt;&lt;/li&gt;&lt;/ul&gt;&lt;/div&gt;&lt;div&gt;&lt;span style=&quot;font-size: 14px;&quot;&gt;&lt;b&gt;Data Model:None (As-is)&lt;/b&gt;&lt;/span&gt;&lt;/div&gt;&lt;div&gt;&lt;span style=&quot;font-size: 14px;&quot;&gt;&lt;b&gt;&lt;span style=&quot;white-space: pre;&quot;&gt;&#x9;&lt;/span&gt;&lt;br&gt;&lt;/b&gt;&lt;/span&gt;&lt;/div&gt;" style="text;html=1;align=left;verticalAlign=middle;whiteSpace=wrap;rounded=0;" vertex="1" parent="1">
          <mxGeometry x="655" y="570" width="210" height="30" as="geometry" />
        </mxCell>
        <mxCell id="QQJv3AvijKXCba4jiJS2-77" value="" style="line;strokeWidth=2;html=1;strokeColor=light-dark(#aba6a6, #ededed);" vertex="1" parent="1">
          <mxGeometry x="995" y="435" width="187.5" height="10" as="geometry" />
        </mxCell>
        <mxCell id="QQJv3AvijKXCba4jiJS2-78" value="&lt;font style=&quot;font-size: 14px;&quot;&gt;&lt;b&gt;Object Type&lt;/b&gt;:Views&lt;/font&gt;&lt;div&gt;&lt;span style=&quot;font-size: 14px;&quot;&gt;&lt;br&gt;&lt;/span&gt;&lt;div&gt;&lt;span style=&quot;font-size: 14px;&quot;&gt;&lt;b&gt;No Load:&lt;/b&gt;&lt;/span&gt;&lt;/div&gt;&lt;div&gt;&lt;span style=&quot;font-size: 14px;&quot;&gt;&lt;b&gt;&lt;br&gt;&lt;/b&gt;&lt;/span&gt;&lt;/div&gt;&lt;div&gt;&lt;div&gt;&lt;span style=&quot;font-size: 14px;&quot;&gt;&lt;b&gt;Transformations:&lt;/b&gt;&lt;/span&gt;&lt;/div&gt;&lt;/div&gt;&lt;/div&gt;&lt;div&gt;&lt;ul&gt;&lt;li&gt;&lt;span style=&quot;font-size: 14px;&quot;&gt;&lt;b&gt;Data Integrations&lt;/b&gt;&lt;/span&gt;&lt;/li&gt;&lt;li&gt;&lt;span style=&quot;font-size: 14px;&quot;&gt;&lt;b&gt;Aggregations&lt;/b&gt;&lt;/span&gt;&lt;/li&gt;&lt;li&gt;&lt;span style=&quot;font-size: 14px;&quot;&gt;&lt;b&gt;Business Logics&lt;/b&gt;&lt;/span&gt;&lt;/li&gt;&lt;/ul&gt;&lt;/div&gt;&lt;div&gt;&lt;span style=&quot;font-size: 14px;&quot;&gt;&lt;b&gt;Data Model:&lt;/b&gt;&lt;/span&gt;&lt;/div&gt;&lt;div&gt;&lt;ul&gt;&lt;li&gt;&lt;span style=&quot;font-size: 14px;&quot;&gt;&lt;b&gt;Star Schema&lt;/b&gt;&lt;/span&gt;&lt;/li&gt;&lt;li&gt;&lt;span style=&quot;font-size: 14px;&quot;&gt;&lt;b&gt;Flat Table&lt;/b&gt;&lt;/span&gt;&lt;/li&gt;&lt;li&gt;&lt;span style=&quot;font-size: 14px;&quot;&gt;&lt;b&gt;Aggregated Table&lt;/b&gt;&lt;/span&gt;&lt;/li&gt;&lt;/ul&gt;&lt;/div&gt;&lt;div&gt;&lt;span style=&quot;font-size: 14px;&quot;&gt;&lt;b&gt;&lt;span style=&quot;white-space: pre;&quot;&gt;&#x9;&lt;/span&gt;&lt;br&gt;&lt;/b&gt;&lt;/span&gt;&lt;/div&gt;" style="text;html=1;align=left;verticalAlign=middle;whiteSpace=wrap;rounded=0;" vertex="1" parent="1">
          <mxGeometry x="1000" y="580" width="210" height="30" as="geometry" />
        </mxCell>
        <mxCell id="QQJv3AvijKXCba4jiJS2-80" value="" style="image;aspect=fixed;html=1;points=[];align=center;fontSize=12;image=img/lib/azure2/analytics/Power_BI_Embedded.svg;" vertex="1" parent="1">
          <mxGeometry x="1350" y="240" width="45" height="60" as="geometry" />
        </mxCell>
        <mxCell id="QQJv3AvijKXCba4jiJS2-81" value="" style="points=[];aspect=fixed;html=1;align=center;shadow=0;dashed=0;fillColor=#FF6A00;strokeColor=none;shape=mxgraph.alibaba_cloud.ots_tablestore;" vertex="1" parent="1">
          <mxGeometry x="1400" y="255" width="53.1" height="42.599999999999994" as="geometry" />
        </mxCell>
        <mxCell id="QQJv3AvijKXCba4jiJS2-82" value="&lt;b&gt;&lt;font style=&quot;font-size: 13px;&quot;&gt;BI &amp;amp; Reporting&lt;/font&gt;&lt;/b&gt;" style="text;html=1;align=center;verticalAlign=middle;whiteSpace=wrap;rounded=0;" vertex="1" parent="1">
          <mxGeometry x="1340" y="315.5" width="100" height="30" as="geometry" />
        </mxCell>
        <mxCell id="QQJv3AvijKXCba4jiJS2-83" value="" style="sketch=0;points=[[0,0,0],[0.25,0,0],[0.5,0,0],[0.75,0,0],[1,0,0],[0,1,0],[0.25,1,0],[0.5,1,0],[0.75,1,0],[1,1,0],[0,0.25,0],[0,0.5,0],[0,0.75,0],[1,0.25,0],[1,0.5,0],[1,0.75,0]];outlineConnect=0;fontColor=#232F3E;fillColor=#8C4FFF;strokeColor=#ffffff;dashed=0;verticalLabelPosition=bottom;verticalAlign=top;align=center;html=1;fontSize=12;fontStyle=0;aspect=fixed;shape=mxgraph.aws4.resourceIcon;resIcon=mxgraph.aws4.sql_workbench;" vertex="1" parent="1">
          <mxGeometry x="1363" y="407" width="53" height="53" as="geometry" />
        </mxCell>
        <mxCell id="QQJv3AvijKXCba4jiJS2-84" value="&lt;span style=&quot;font-size: 13px;&quot;&gt;&lt;b&gt;Ad Hoc SQL Queries&lt;/b&gt;&lt;/span&gt;" style="text;html=1;align=center;verticalAlign=middle;whiteSpace=wrap;rounded=0;" vertex="1" parent="1">
          <mxGeometry x="1350" y="480" width="100" height="30" as="geometry" />
        </mxCell>
        <mxCell id="QQJv3AvijKXCba4jiJS2-85" value="" style="points=[];aspect=fixed;html=1;align=center;shadow=0;dashed=0;fillColor=#FF6A00;strokeColor=none;shape=mxgraph.alibaba_cloud.machine_learning;" vertex="1" parent="1">
          <mxGeometry x="1368" y="560" width="49.8" height="50.099999999999994" as="geometry" />
        </mxCell>
        <mxCell id="QQJv3AvijKXCba4jiJS2-86" value="&lt;span style=&quot;font-size: 13px;&quot;&gt;&lt;b&gt;Machine Learning&lt;/b&gt;&lt;/span&gt;" style="text;html=1;align=center;verticalAlign=middle;whiteSpace=wrap;rounded=0;" vertex="1" parent="1">
          <mxGeometry x="1353.1" y="620" width="100" height="30" as="geometry" />
        </mxCell>
        <mxCell id="QQJv3AvijKXCba4jiJS2-87" value="" style="points=[];aspect=fixed;html=1;align=center;shadow=0;dashed=0;fillColor=#FF6A00;strokeColor=none;shape=mxgraph.alibaba_cloud.sqlserver;" vertex="1" parent="1">
          <mxGeometry x="600" y="107" width="39.6" height="54.900000000000006" as="geometry" />
        </mxCell>
      </root>
    </mxGraphModel>
  </diagram>
</mxfile>
